<svg xmlns="http://www.w3.org/2000/svg" xmlns:xlink="http://www.w3.org/1999/xlink" overflow="visible" fill="#fff" width="512" height="512"><defs><linearGradient id="d"><stop style="stop-color:#69d16d;stop-opacity:1" offset="0"/><stop style="stop-color:#3e8e41;stop-opacity:1" offset="1"/></linearGradient><linearGradient id="b"><stop style="stop-color:#439b46;stop-opacity:1" offset="0"/><stop style="stop-color:#68d06c;stop-opacity:1" offset="1"/></linearGradient><linearGradient id="a"><stop style="stop-color:#3d8d40;stop-opacity:1" offset="0"/><stop style="stop-color:#68bd6c;stop-opacity:1" offset=".581"/><stop style="stop-color:#7bc67e;stop-opacity:1" offset="1"/></linearGradient><linearGradient id="c"><stop style="stop-color:#6cd570;stop-opacity:1" offset="0"/><stop style="stop-color:#4caf50;stop-opacity:1" offset="1"/></linearGradient><linearGradient xlink:href="#a" id="f" x1="144.732" y1="136.077" x2="298.498" y2="378.348" gradientUnits="userSpaceOnUse"/><linearGradient xlink:href="#b" id="e" x1="318.739" y1="259.326" x2="275.163" y2="205.54" gradientUnits="userSpaceOnUse"/><radialGradient xlink:href="#c" id="g" cx="169.649" cy="22.648" fx="169.649" fy="22.648" r="110.717" gradientTransform="matrix(.07304 .62393 -1.10948 .12988 246.737 -20.748)" gradientUnits="userSpaceOnUse"/><radialGradient xlink:href="#d" id="h" cx="204.58" cy="92.594" fx="204.58" fy="92.594" r="143.478" gradientTransform="matrix(.07263 .93499 -.99204 .07706 339.732 50.995)" gradientUnits="userSpaceOnUse"/></defs><path style="fill:url(#e);fill-opacity:1;stroke:none;stroke-width:1px;stroke-linecap:butt;stroke-linejoin:miter;stroke-opacity:1" d="M354.755 347.026c18.791-46.529 31.816-121.713-41.523-143.023-50.828-14.769-85.58 27.273-85.58 27.273s44.959-9.157 57.824 35.562c5.779 20.088 9.256 36.101-12.09 76.306z" transform="translate(-183.38 -148.578) scale(1.71787)"/><path style="fill:url(#f);fill-opacity:1;stroke:#999;stroke-width:0;stroke-miterlimit:4;stroke-dasharray:none;stroke-dashoffset:0" d="M255.711 86.462c-82.296.032-148.992 66.755-148.992 149.05 0 82.319 66.732 149.051 149.05 149.051 82.32 0 149.052-66.732 149.051-149.05-149.3 9.807-81.53 99.612-149.917 106.89-65.09 6.927-105.287-48.263-105.288-106.89 2.406-93.99 55.658-75.784 107.16-79.517 42.961-3.114 61.734-31.03 70.243-51.402a149.05 149.05 0 0 0-71.248-18.132z" transform="translate(-183.38 -148.578) scale(1.71787)"/><path style="fill:url(#g);fill-opacity:1;stroke:none;stroke-width:1px;stroke-linecap:butt;stroke-linejoin:miter;stroke-opacity:1" d="M255.74 86.459c-82.295.032-148.992 66.755-148.992 149.05 0 3.823.145 7.612.428 11.362l.086.377s-1.235-31.496 15.765-58.715c13.915-22.278 44.94-42.303 88.006-35.03 19.881 3.359 45.483 2.502 45.742 2.493.01 0 .02 0 .03-.002 42.96-3.114 61.734-31.03 70.242-51.402a149.05 149.05 0 0 0-71.248-18.133z" transform="translate(-183.38 -148.578) scale(1.71787)"/><path style="fill:url(#h);fill-opacity:1;stroke:none;stroke-width:1px;stroke-linecap:butt;stroke-linejoin:miter;stroke-opacity:1" d="M404.82 235.512c-149.3 9.807-90.52 91.438-149.918 106.89-31.114 8.095-66.754 3.025-95.864-10.622-17.25-8.086-33.113-23.876-41.173-39.637 22.294 54.23 75.635 92.42 137.905 92.42 82.318 0 149.05-66.733 149.05-149.051z" transform="translate(-183.38 -148.578) scale(1.71787)"/></svg>