<svg xmlns="http://www.w3.org/2000/svg" viewBox="0 0 320.001 320.001" style="enable-background:new 0 0 320.001 320.001" xml:space="preserve"><path d="M270.284 86.478c-28.856 0-57.708 21.743-75.186 37.922a49.943 49.943 0 0 0-21.658-12.558c6.697-14.545 19.465-25.857 32.511-34.555 27.571-18.381 24.65-49.542 0-64.333C160-14.617 86.477 3.764 86.477 49.716c0 28.856 21.743 57.708 37.922 75.186a49.934 49.934 0 0 0-12.557 21.657c-14.546-6.697-25.859-19.465-34.556-32.511-18.38-27.57-49.541-24.65-64.332 0C-14.617 160 3.764 233.523 49.716 233.523c28.856 0 57.709-21.743 75.186-37.922a49.934 49.934 0 0 0 21.657 12.557c-6.697 14.546-19.465 25.858-32.51 34.556-27.571 18.381-24.651 49.542 0 64.333 45.952 27.571 119.475 9.19 119.475-36.762 0-28.856-21.743-57.709-37.922-75.186a49.934 49.934 0 0 0 12.557-21.657c14.546 6.697 25.859 19.465 34.556 32.511 18.38 27.57 49.542 24.65 64.333 0C334.617 160 316.236 86.478 270.284 86.478zM160 180c-11.045 0-20-8.954-20-20s8.955-20 20-20 20 8.954 20 20-8.955 20-20 20z"/></svg>